<?xml version="1.0" encoding="UTF-8" standalone="no"?>
<!-- Created with Inkscape (http://www.inkscape.org/) -->
<svg
   xmlns:dc="http://purl.org/dc/elements/1.1/"
   xmlns:cc="http://creativecommons.org/ns#"
   xmlns:rdf="http://www.w3.org/1999/02/22-rdf-syntax-ns#"
   xmlns:svg="http://www.w3.org/2000/svg"
   xmlns="http://www.w3.org/2000/svg"
   xmlns:sodipodi="http://sodipodi.sourceforge.net/DTD/sodipodi-0.dtd"
   xmlns:inkscape="http://www.inkscape.org/namespaces/inkscape"
   width="744.09448819"
   height="1052.3622047"
   id="svg2"
   sodipodi:version="0.32"
   inkscape:version="0.46"
   sodipodi:docname="shuffle.svg"
   inkscape:output_extension="org.inkscape.output.svg.inkscape"
   inkscape:export-filename="C:\Documents and Settings\B3002\Desktop\shuffle5.png"
   inkscape:export-xdpi="96"
   inkscape:export-ydpi="96">
  <defs
     id="defs4">
    <inkscape:perspective
       sodipodi:type="inkscape:persp3d"
       inkscape:vp_x="0 : 526.18109 : 1"
       inkscape:vp_y="0 : 1000 : 0"
       inkscape:vp_z="744.09448 : 526.18109 : 1"
       inkscape:persp3d-origin="372.04724 : 350.78739 : 1"
       id="perspective10" />
    <inkscape:perspective
       id="perspective2390"
       inkscape:persp3d-origin="372.04724 : 350.78739 : 1"
       inkscape:vp_z="744.09448 : 526.18109 : 1"
       inkscape:vp_y="0 : 1000 : 0"
       inkscape:vp_x="0 : 526.18109 : 1"
       sodipodi:type="inkscape:persp3d" />
    <inkscape:perspective
       id="perspective2403"
       inkscape:persp3d-origin="372.04724 : 350.78739 : 1"
       inkscape:vp_z="744.09448 : 526.18109 : 1"
       inkscape:vp_y="0 : 1000 : 0"
       inkscape:vp_x="0 : 526.18109 : 1"
       sodipodi:type="inkscape:persp3d" />
    <inkscape:perspective
       id="perspective2583"
       inkscape:persp3d-origin="372.04724 : 350.78739 : 1"
       inkscape:vp_z="744.09448 : 526.18109 : 1"
       inkscape:vp_y="0 : 1000 : 0"
       inkscape:vp_x="0 : 526.18109 : 1"
       sodipodi:type="inkscape:persp3d" />
    <inkscape:perspective
       id="perspective2600"
       inkscape:persp3d-origin="372.04724 : 350.78739 : 1"
       inkscape:vp_z="744.09448 : 526.18109 : 1"
       inkscape:vp_y="0 : 1000 : 0"
       inkscape:vp_x="0 : 526.18109 : 1"
       sodipodi:type="inkscape:persp3d" />
  </defs>
  <sodipodi:namedview
     id="base"
     pagecolor="#ffffff"
     bordercolor="#666666"
     borderopacity="1.0"
     gridtolerance="10000"
     guidetolerance="10"
     objecttolerance="10"
     inkscape:pageopacity="0.0"
     inkscape:pageshadow="2"
     inkscape:zoom="0.35355339"
     inkscape:cx="876.20485"
     inkscape:cy="331.00809"
     inkscape:document-units="px"
     inkscape:current-layer="layer1"
     showgrid="false"
     inkscape:window-width="1280"
     inkscape:window-height="968"
     inkscape:window-x="1276"
     inkscape:window-y="-4"
     showguides="true"
     inkscape:snap-global="false">
    <inkscape:grid
       type="xygrid"
       id="grid5999" />
  </sodipodi:namedview>
  <metadata
     id="metadata7">
    <rdf:RDF>
      <cc:Work
         rdf:about="">
        <dc:format>image/svg+xml</dc:format>
        <dc:type
           rdf:resource="http://purl.org/dc/dcmitype/StillImage" />
      </cc:Work>
    </rdf:RDF>
  </metadata>
  <g
     inkscape:label="Layer 1"
     inkscape:groupmode="layer"
     id="layer1">
    <path
       style="fill:#000000"
       d="M 583.14919,698.33681 L 583.03606,642.77408 C 582.73717,642.64403 579.79136,642.98373 535.76313,642.92836 C 511.5476,642.89791 483.34501,641.65942 473.09071,640.17616 C 462.83641,638.6929 448.36999,635.48213 440.94311,633.0411 C 433.51624,630.60006 418.01064,623.97637 406.48625,618.32177 C 392.76286,611.58822 378.53531,601.40716 365.25346,588.81606 C 354.09981,578.24252 344.97411,567.85354 344.97411,565.72945 C 344.95167,566.34257 412.35825,486.78956 412.05011,486.4389 L 432.86808,505.42211 C 442.5438,514.24508 456.46402,522.26992 463.38274,526.38224 C 475.63223,533.66303 502.37781,537.26416 520.13859,536.52542 C 520.28222,536.51945 580.5895,537.14884 580.78973,536.64048 L 580.75823,479.90335 C 580.77567,479.79707 708.39012,595.97656 709.70121,595.92711 L 583.14919,698.33681 z M 35,642.36218 L 34.72269,587.15171 L 35,537.36218 L 95,537.36218 C 140.23275,537.36218 156.21521,533.90517 166.43317,530.09861 C 175.74993,526.62779 186.04972,518.45911 203.16722,500.96514 C 216.25015,487.59448 231.18019,471.62375 236.34511,465.47464 C 241.51003,459.32553 246.99382,452.90035 248.53132,451.19644 C 250.06881,449.49253 260.13241,437.61821 270.89486,424.80907 C 313.71287,373.84842 355.14609,328.83535 372.47764,314.44944 C 382.51189,306.12061 399.61226,294.98737 410.47845,289.7089 C 442.99047,273.91557 450.60793,262.91824 514.36387,263.20278 L 581.54136,263.50259 L 582.39361,211.20712 L 713.9243,324.1032 L 580.76766,434.79808 L 579.70538,375.23039 L 540.65516,375.19498 C 519.89405,375.17615 494.79739,375.7669 484.87381,377.47288 C 471.78765,379.72257 463.14344,383.28156 453.40808,390.42797 C 446.02551,395.84727 438.26698,402.73444 436.16685,405.73274 C 434.06674,408.73108 424.92659,418.99642 415.85538,428.54462 C 406.78419,438.09283 385.68986,462.25832 368.97909,482.24574 C 335.95322,521.74734 301.76805,559.90603 278.42842,583.32159 C 254.88119,606.94544 229.15157,623.22451 201.03014,632.29125 C 191.79343,635.26932 174.17252,638.88385 161.87257,640.32359 C 149.57262,641.76333 116.43461,642.36218 90,642.36218 L 35,642.36218 z M 204.61989,407.81564 C 194.09631,397.08623 181.09124,387.35128 177.24751,384.9602 C 173.40377,382.56911 160.41877,379.26465 148.39194,377.61696 C 136.3651,375.96927 107.83661,374.60244 84.99528,374.62116 L 35.25635,374.66193 L 34.75,271.36218 L 100.37281,271.75964 C 152.6543,272.0763 168.32538,271.79765 184.23612,275.56435 C 207.24337,281.01107 242.77697,300.77158 249.39864,304.90248 C 256.02031,309.03338 273.95525,324.51119 280.14213,330.70561 C 286.32901,336.90003 291.84428,344.68283 291.84428,344.68283 L 224.77111,425.93256 L 204.61989,407.81564 z"
       id="path2634"
       sodipodi:nodetypes="cssssssccssssccccccssssssssscccccssssssssssccsssccsszzccc" />
  </g>
</svg>
