<?xml version="1.0" encoding="UTF-8" standalone="no"?>
<!-- Created with Inkscape (http://www.inkscape.org/) -->
<svg
   xmlns:dc="http://purl.org/dc/elements/1.1/"
   xmlns:cc="http://creativecommons.org/ns#"
   xmlns:rdf="http://www.w3.org/1999/02/22-rdf-syntax-ns#"
   xmlns:svg="http://www.w3.org/2000/svg"
   xmlns="http://www.w3.org/2000/svg"
   xmlns:sodipodi="http://sodipodi.sourceforge.net/DTD/sodipodi-0.dtd"
   xmlns:inkscape="http://www.inkscape.org/namespaces/inkscape"
   width="744.09448819"
   height="1052.3622047"
   id="svg2"
   sodipodi:version="0.32"
   inkscape:version="0.46"
   sodipodi:docname="shuffle.svg"
   inkscape:output_extension="org.inkscape.output.svg.inkscape"
   inkscape:export-filename="C:\Documents and Settings\B3002\Desktop\shuffle5.png"
   inkscape:export-xdpi="96"
   inkscape:export-ydpi="96">
  <defs
     id="defs4">
    <inkscape:perspective
       sodipodi:type="inkscape:persp3d"
       inkscape:vp_x="0 : 526.18109 : 1"
       inkscape:vp_y="0 : 1000 : 0"
       inkscape:vp_z="744.09448 : 526.18109 : 1"
       inkscape:persp3d-origin="372.04724 : 350.78739 : 1"
       id="perspective10" />
    <inkscape:perspective
       id="perspective2390"
       inkscape:persp3d-origin="372.04724 : 350.78739 : 1"
       inkscape:vp_z="744.09448 : 526.18109 : 1"
       inkscape:vp_y="0 : 1000 : 0"
       inkscape:vp_x="0 : 526.18109 : 1"
       sodipodi:type="inkscape:persp3d" />
    <inkscape:perspective
       id="perspective2403"
       inkscape:persp3d-origin="372.04724 : 350.78739 : 1"
       inkscape:vp_z="744.09448 : 526.18109 : 1"
       inkscape:vp_y="0 : 1000 : 0"
       inkscape:vp_x="0 : 526.18109 : 1"
       sodipodi:type="inkscape:persp3d" />
    <inkscape:perspective
       id="perspective2583"
       inkscape:persp3d-origin="372.04724 : 350.78739 : 1"
       inkscape:vp_z="744.09448 : 526.18109 : 1"
       inkscape:vp_y="0 : 1000 : 0"
       inkscape:vp_x="0 : 526.18109 : 1"
       sodipodi:type="inkscape:persp3d" />
    <inkscape:perspective
       id="perspective2600"
       inkscape:persp3d-origin="372.04724 : 350.78739 : 1"
       inkscape:vp_z="744.09448 : 526.18109 : 1"
       inkscape:vp_y="0 : 1000 : 0"
       inkscape:vp_x="0 : 526.18109 : 1"
       sodipodi:type="inkscape:persp3d" />
  </defs>
  <sodipodi:namedview
     id="base"
     pagecolor="#ffffff"
     bordercolor="#666666"
     borderopacity="1.0"
     gridtolerance="10000"
     guidetolerance="10"
     objecttolerance="10"
     inkscape:pageopacity="0.0"
     inkscape:pageshadow="2"
     inkscape:zoom="4"
     inkscape:cx="282.08061"
     inkscape:cy="776.0677"
     inkscape:document-units="px"
     inkscape:current-layer="layer1"
     showgrid="true"
     inkscape:window-width="1280"
     inkscape:window-height="968"
     inkscape:window-x="1280"
     inkscape:window-y="22"
     showguides="true"
     inkscape:snap-global="false">
    <inkscape:grid
       type="xygrid"
       id="grid5999" />
  </sodipodi:namedview>
  <metadata
     id="metadata7">
    <rdf:RDF>
      <cc:Work
         rdf:about="">
        <dc:format>image/svg+xml</dc:format>
        <dc:type
           rdf:resource="http://purl.org/dc/dcmitype/StillImage" />
      </cc:Work>
    </rdf:RDF>
  </metadata>
  <g
     inkscape:label="Layer 1"
     inkscape:groupmode="layer"
     id="layer1">
    <path
       style="fill:#000000"
       d="M 474.94011,481.96213 L 474.94011,439.81784 C 474.94011,439.5706 473.61274,439.85983 440.21736,439.81784 C 421.84989,439.79475 400.45825,438.97237 392.68037,437.84732 C 384.9025,436.72226 373.92972,434.2869 368.29644,432.43538 C 362.66317,430.58385 350.90218,425.55979 342.16093,421.27078 C 331.75176,416.16339 320.96017,408.44106 310.8859,398.89073 C 302.42586,390.8707 295.50402,382.99066 295.50402,381.37954 C 295.487,381.84459 346.61485,321.50369 346.38112,321.23772 L 362.17153,335.63646 C 369.51056,342.32868 380.06904,348.41552 385.31688,351.53471 C 389.9625,354.29595 408.20706,359.2283 427.81088,359.2283 L 474.94011,359.2283 C 475.04914,359.2283 474.94011,359.73 474.94011,359.31557 L 474.94011,316.2805 C 474.95335,316.1999 571.15481,404.32196 572.14927,404.28444 L 474.94011,481.96213 z M 60.388873,439.50542 L 60.388873,359.86299 L 105.89883,359.86299 C 140.20784,359.86299 152.33053,357.24085 160.08085,354.35358 C 167.1476,351.72096 174.95998,345.52502 187.9436,332.25587 C 197.86699,322.11422 209.19142,310.00044 213.10901,305.33635 C 217.0266,300.67225 221.18604,295.79875 222.35224,294.50634 C 223.51842,293.21391 231.15165,284.20726 239.31496,274.49153 C 271.7924,235.83792 303.21946,201.69553 316.36543,190.78384 C 323.9764,184.46643 336.94702,176.02186 345.18902,172.01816 C 369.84937,160.03892 375.62673,151.91328 423.98604,151.91328 L 474.94011,151.91328 L 474.94011,112.47461 L 575.35248,198.10621 L 474.94011,282.06819 L 474.94011,236.85928 L 443.92797,236.85928 C 428.18066,236.85928 409.14487,237.29308 401.61785,238.58707 C 391.69201,240.29345 385.13537,242.99295 377.75111,248.4135 C 372.15144,252.52403 366.2666,257.74794 364.67366,260.02215 C 363.08073,262.2964 356.14793,270.08264 349.26742,277.32495 C 342.38693,284.56725 326.3869,302.89676 313.71179,318.05721 C 288.66168,348.01914 262.73225,376.96249 245.02916,394.72316 C 227.1686,412.64184 207.65271,424.98951 186.32262,431.86662 C 179.31659,434.12548 165.95113,436.86711 156.62162,437.95915 C 147.29213,439.05119 122.15697,439.50542 102.10633,439.50542 L 60.388873,439.50542 z M 189.04545,261.60203 C 181.06331,253.46379 171.19899,246.07983 168.28352,244.26619 C 165.36804,242.45255 155.51892,239.94612 146.39658,238.69636 C 137.27423,237.44658 115.6354,236.45497 98.310257,236.45497 L 60.583314,236.45497 L 60.583314,158.10218 L 110.9741,158.10218 C 150.63031,158.10218 161.51609,158.43248 173.58437,161.28952 C 191.03535,165.42086 217.98757,180.40918 223.01009,183.54247 C 228.03264,186.67575 241.63627,198.41567 246.32901,203.11412 C 251.02176,207.81259 255.20508,213.71584 255.20508,213.71584 L 204.33013,275.3437 L 189.04545,261.60203 z"
       id="path2634"
       sodipodi:nodetypes="cssssssccssssscccccssssssssscccccssssssssssccsssccsszzccc" />
  </g>
</svg>
